<svg width="24" height="24" viewBox="0 0 24 24" fill="none" xmlns="http://www.w3.org/2000/svg">
<path d="M22 7V17M2 7V17M19 15V9C19 6.172 19 4.757 18.121 3.879C17.243 3 15.828 3 13 3H11C8.172 3 6.757 3 5.879 3.879C5 4.757 5 6.172 5 9V15C5 17.828 5 19.243 5.879 20.121C6.757 21 8.172 21 11 21H13C15.828 21 17.243 21 18.121 20.121C19 19.243 19 17.828 19 15Z" stroke="#1D3371" stroke-width="1.5" stroke-linecap="round" stroke-linejoin="round"/>
<path d="M14 8.50903C14 9.03947 13.7893 9.54817 13.4142 9.92325C13.0392 10.2983 12.5304 10.509 12 10.509C11.4696 10.509 10.9609 10.2983 10.5858 9.92325C10.2107 9.54817 10 9.03947 10 8.50903C10 7.9786 10.2107 7.46989 10.5858 7.09482C10.9609 6.71975 11.4696 6.50903 12 6.50903C12.5304 6.50903 13.0392 6.71975 13.4142 7.09482C13.7893 7.46989 14 7.9786 14 8.50903ZM8.04401 15.732C9.10301 14.102 10.784 13.492 11.999 13.494C13.216 13.494 14.847 14.103 15.905 15.732C15.974 15.838 15.993 15.967 15.931 16.077C15.683 16.516 14.915 17.387 14.36 17.446C13.722 17.513 12.054 17.523 12 17.523C11.948 17.523 10.228 17.513 9.59001 17.446C9.03501 17.386 8.26601 16.516 8.01901 16.076C7.95701 15.967 7.97601 15.838 8.04401 15.732Z" stroke="#1D3371" stroke-width="1.5" stroke-linecap="round" stroke-linejoin="round"/>
</svg>
