<svg width="24" height="24" viewBox="0 0 24 24" fill="none" xmlns="http://www.w3.org/2000/svg">
<g clip-path="url(#clip0_83_1025)">
<path d="M0.859497 7.14997C0.602138 7.27102 0.384541 7.46281 0.232127 7.70292C0.079714 7.94304 -0.0012207 8.22157 -0.0012207 8.50597C-0.0012207 8.79038 0.079714 9.06891 0.232127 9.30903C0.384541 9.54914 0.602138 9.74093 0.859497 9.86197L3.0045 10.8745V16.7545C3.0045 17.8675 3.366 19.1095 4.4205 19.8745C5.7495 20.8345 8.1705 22.0045 12.0105 22.0045C15.8505 22.0045 18.2655 20.827 19.6005 19.8745C20.655 19.1125 21.0165 17.8795 21.0165 16.7545V10.8745L22.5165 10.165V16.75C22.5165 16.9489 22.5955 17.1397 22.7362 17.2803C22.8768 17.421 23.0676 17.5 23.2665 17.5C23.4654 17.5 23.6562 17.421 23.7968 17.2803C23.9375 17.1397 24.0165 16.9489 24.0165 16.75V8.49997C24.0166 8.2159 23.936 7.93765 23.7841 7.6976C23.6322 7.45754 23.4152 7.26556 23.1585 7.14397L14.5785 3.09397C13.7766 2.71476 12.9006 2.51807 12.0135 2.51807C11.1264 2.51807 10.2504 2.71476 9.4485 3.09397L0.868497 7.14397L0.859497 7.14997ZM4.5045 16.75V11.575L9.4395 13.915C10.2414 14.2942 11.1174 14.4909 12.0045 14.4909C12.8916 14.4909 13.7676 14.2942 14.5695 13.915L19.5045 11.575V16.75C19.5045 17.584 19.2345 18.265 18.7095 18.64C17.6235 19.4245 15.5145 20.5 12.0045 20.5C8.4945 20.5 6.3795 19.432 5.2995 18.64C4.776 18.262 4.5045 17.5765 4.5045 16.75ZM10.0845 4.44997C10.6846 4.16569 11.3404 4.01822 12.0045 4.01822C12.6686 4.01822 13.3244 4.16569 13.9245 4.44997L22.5045 8.49997L13.9245 12.55C13.3244 12.8343 12.6686 12.9817 12.0045 12.9817C11.3404 12.9817 10.6846 12.8343 10.0845 12.55L1.5045 8.49997L10.0845 4.44997Z" fill="#1D3371"/>
<path d="M0.859497 7.14997C0.602138 7.27102 0.384541 7.46281 0.232127 7.70292C0.079714 7.94304 -0.0012207 8.22157 -0.0012207 8.50597C-0.0012207 8.79038 0.079714 9.06891 0.232127 9.30903C0.384541 9.54914 0.602138 9.74093 0.859497 9.86197L3.0045 10.8745V16.7545C3.0045 17.8675 3.366 19.1095 4.4205 19.8745C5.7495 20.8345 8.1705 22.0045 12.0105 22.0045C15.8505 22.0045 18.2655 20.827 19.6005 19.8745C20.655 19.1125 21.0165 17.8795 21.0165 16.7545V10.8745L22.5165 10.165V16.75C22.5165 16.9489 22.5955 17.1397 22.7362 17.2803C22.8768 17.421 23.0676 17.5 23.2665 17.5C23.4654 17.5 23.6562 17.421 23.7968 17.2803C23.9375 17.1397 24.0165 16.9489 24.0165 16.75V8.49997C24.0166 8.2159 23.936 7.93765 23.7841 7.6976C23.6322 7.45754 23.4152 7.26556 23.1585 7.14397L14.5785 3.09397C13.7766 2.71476 12.9006 2.51807 12.0135 2.51807C11.1264 2.51807 10.2504 2.71476 9.4485 3.09397L0.868497 7.14397L0.859497 7.14997ZM4.5045 16.75V11.575L9.4395 13.915C10.2414 14.2942 11.1174 14.4909 12.0045 14.4909C12.8916 14.4909 13.7676 14.2942 14.5695 13.915L19.5045 11.575V16.75C19.5045 17.584 19.2345 18.265 18.7095 18.64C17.6235 19.4245 15.5145 20.5 12.0045 20.5C8.4945 20.5 6.3795 19.432 5.2995 18.64C4.776 18.262 4.5045 17.5765 4.5045 16.75ZM10.0845 4.44997C10.6846 4.16569 11.3404 4.01822 12.0045 4.01822C12.6686 4.01822 13.3244 4.16569 13.9245 4.44997L22.5045 8.49997L13.9245 12.55C13.3244 12.8343 12.6686 12.9817 12.0045 12.9817C11.3404 12.9817 10.6846 12.8343 10.0845 12.55L1.5045 8.49997L10.0845 4.44997Z" stroke="#1D3371"/>
</g>
<defs>
<clipPath id="clip0_83_1025">
<rect width="24" height="24" fill="white"/>
</clipPath>
</defs>
</svg>
