<svg width="24" height="24" viewBox="0 0 24 24" fill="none" xmlns="http://www.w3.org/2000/svg">
<path d="M12 22C10.6868 22 9.38642 21.7413 8.17317 21.2388C6.95991 20.7362 5.85752 19.9997 4.92893 19.0711C3.05357 17.1957 2 14.6522 2 12C2 9.34784 3.05357 6.8043 4.92893 4.92893C6.8043 3.05357 9.34784 2 12 2C17.5 2 22 6 22 11C22 12.5913 21.3679 14.1174 20.2426 15.2426C19.1174 16.3679 17.5913 17 16 17H14.2C13.9 17 13.7 17.2 13.7 17.5C13.7 17.6 13.8 17.7 13.8 17.8C14.2 18.3 14.4 18.9 14.4 19.5C14.5 20.9 13.4 22 12 22ZM12 3.5C9.87827 3.5 7.50029 4.49971 6 6C4.49971 7.50029 3.5 9.87827 3.5 12C3.5 14.1217 4.49971 16.4997 6 18C7.50029 19.5003 9.87827 20.5 12 20.5C12.3 20.5 13 20.3 13 20C13 19.5 13 19.5 12.8 19C12.5 18.5 12.2 18.1445 12.2 17.5C12.2 16.1 12.8 15.5 14.2 15.5H16C17.0609 15.5 18.4499 14.7501 19.2 14C19.9501 13.2499 20.5 12.0609 20.5 11C20.5 7.1 16.4 3.5 12 3.5ZM6.5 10C7.3 10 8 10.7 8 11.5C8 12.3 7.3 13 6.5 13C5.7 13 5 12.3 5 11.5C5 10.7 5.7 10 6.5 10ZM9.5 6C10.3 6 11 6.7 11 7.5C11 8.3 10.3 9 9.5 9C8.7 9 8 8.3 8 7.5C8 6.7 8.7 6 9.5 6ZM14.5 6C15.3 6 16 6.7 16 7.5C16 8.3 15.3 9 14.5 9C13.7 9 13 8.3 13 7.5C13 6.7 13.7 6 14.5 6ZM17.5 10C18.3 10 19 10.7 19 11.5C19 12.3 18.3 13 17.5 13C16.7 13 16 12.3 16 11.5C16 10.7 16.7 10 17.5 10Z" fill="#1D3371"/>
</svg>
