<svg width="24" height="24" viewBox="0 0 24 24" fill="none" xmlns="http://www.w3.org/2000/svg">
<path d="M2.44287 23.1069C2.44909 22.51 2.60657 21.9243 2.90059 21.4047C3.21051 20.8644 3.65657 20.4147 4.19435 20.1004C4.73213 19.786 5.34286 19.6181 5.96573 19.6132C6.58831 19.6184 7.19868 19.7865 7.73613 20.1008C8.27358 20.4151 8.71938 20.8646 9.02916 21.4047C9.32401 21.9241 9.48001 22.5104 9.48687 23.1069M14.52 23.1069C14.5262 22.51 14.6837 21.9243 14.9777 21.4047C15.2875 20.8646 15.7333 20.4151 16.2708 20.1008C16.8082 19.7865 17.4186 19.6184 18.0412 19.6132C18.9695 19.6154 19.8596 19.9831 20.5189 20.6366C21.1782 21.2901 21.5537 22.177 21.564 23.1052M8.58516 11.5167C8.5903 10.9389 8.74287 10.3715 9.02744 9.86752C9.32715 9.34284 9.75957 8.90619 10.2813 8.60139C10.8031 8.29659 11.3958 8.13435 12 8.13095C13.2172 8.13266 14.3709 8.80638 14.9709 9.86752C15.2554 10.3715 15.408 10.9389 15.4149 11.5167M5.96573 18.0567C6.48472 18.0567 6.98245 17.8505 7.34944 17.4835C7.71642 17.1165 7.92259 16.6188 7.92259 16.0998C7.92259 15.5808 7.71642 15.0831 7.34944 14.7161C6.98245 14.3491 6.48472 14.1429 5.96573 14.1429C5.44674 14.1429 4.949 14.3491 4.58202 14.7161C4.21504 15.0831 4.00887 15.5808 4.00887 16.0998C4.00887 16.6188 4.21504 17.1165 4.58202 17.4835C4.949 17.8505 5.44674 18.0567 5.96573 18.0567ZM18.0429 18.0567C18.5619 18.0567 19.0596 17.8505 19.4266 17.4835C19.7936 17.1165 19.9997 16.6188 19.9997 16.0998C19.9997 15.5808 19.7936 15.0831 19.4266 14.7161C19.0596 14.3491 18.5619 14.1429 18.0429 14.1429C17.5239 14.1429 17.0261 14.3491 16.6592 14.7161C16.2922 15.0831 16.086 15.5808 16.086 16.0998C16.086 16.6188 16.2922 17.1165 16.6592 17.4835C17.0261 17.8505 17.5239 18.0567 18.0429 18.0567ZM11.9983 6.93781C12.4825 6.93781 12.9469 6.74545 13.2893 6.40307C13.6317 6.06068 13.824 5.5963 13.824 5.11209C13.824 4.62788 13.6317 4.1635 13.2893 3.82112C12.9469 3.47873 12.4825 3.28638 11.9983 3.28638C11.5141 3.28638 11.0497 3.47873 10.7073 3.82112C10.3649 4.1635 10.1726 4.62788 10.1726 5.11209C10.1726 5.5963 10.3649 6.06068 10.7073 6.40307C11.0497 6.74545 11.5141 6.93781 11.9983 6.93781Z" stroke="#1D3371" stroke-width="1.5" stroke-linecap="round" stroke-linejoin="round"/>
<path d="M20.1978 0.934326H3.80233C3.47616 0.935231 3.16362 1.0652 2.93298 1.29584C2.70235 1.52647 2.57238 1.83902 2.57147 2.16518V10.2858C2.57147 10.9663 3.12347 11.5166 3.80233 11.5166H20.1978C20.5239 11.5157 20.8365 11.3857 21.0671 11.1551C21.2977 10.9245 21.4277 10.6119 21.4286 10.2858V2.16518C21.4277 1.83902 21.2977 1.52647 21.0671 1.29584C20.8365 1.0652 20.5239 0.935231 20.1978 0.934326Z" stroke="#1D3371" stroke-width="1.5" stroke-linecap="round" stroke-linejoin="round"/>
</svg>
