<svg width="24" height="24" viewBox="0 0 24 24" fill="none" xmlns="http://www.w3.org/2000/svg">
<path d="M11.3995 2.10054L2.20697 11.293C2.0195 11.4806 1.91418 11.7349 1.91418 12C1.91418 12.2652 2.0195 12.5195 2.20697 12.707L11.4 21.9C11.5875 22.0875 11.8418 22.1928 12.107 22.1928C12.3721 22.1928 12.6264 22.0875 12.814 21.9L22.0065 12.7075C22.1939 12.52 22.2993 12.2657 22.2993 12.0005C22.2993 11.7354 22.1939 11.4811 22.0065 11.2935L12.8135 2.10004C12.6259 1.91257 12.3716 1.80725 12.1065 1.80725C11.8413 1.80725 11.587 1.91257 11.3995 2.10004V2.10054Z" stroke="#1D3371" stroke-width="1.5" stroke-linejoin="round"/>
<path d="M9 12H15M12 9V15" stroke="#1D3371" stroke-width="1.5" stroke-linecap="round"/>
</svg>
