<svg width="24" height="24" viewBox="0 0 24 24" fill="none" xmlns="http://www.w3.org/2000/svg">
<path d="M6.41487 15.6257L4.57372 22.0817M2.02972 21.3548L7.11601 22.8051M3.73544 10.3045L7.05258 1.51025L13.3149 3.29311L11.4943 12.516C11.3878 13.0671 11.1678 13.59 10.8484 14.0516C10.529 14.5131 10.1172 14.9033 9.63897 15.1972C9.16077 15.4911 8.62668 15.6824 8.07062 15.7589C7.51456 15.8354 6.94866 15.7954 6.40885 15.6416C5.86905 15.4877 5.36713 15.2233 4.93496 14.8651C4.50278 14.507 4.1498 14.0629 3.89841 13.561C3.64702 13.0591 3.50271 12.5105 3.47466 11.9499C3.4466 11.3893 3.53541 10.829 3.73544 10.3045Z" stroke="#1D3371" stroke-width="1.5" stroke-linecap="round" stroke-linejoin="round"/>
<path d="M5.39661 5.89368L12.4012 7.90796" stroke="#1D3371" stroke-width="1.5"/>
<path d="M14.6863 15.3651C15.4149 15.7246 16.2348 15.8565 17.0394 15.7439C17.844 15.6312 18.5961 15.279 19.198 14.7332C19.7998 14.1874 20.2235 13.4732 20.414 12.6834C20.6046 11.8936 20.5531 11.0647 20.2663 10.3045L16.9457 1.51025L15.9583 1.78968M17.5851 15.6257L19.4263 22.0817M21.9703 21.3548L16.884 22.8051M18.6034 5.91425L15.7423 6.73711" stroke="#1D3371" stroke-width="1.5" stroke-linecap="round" stroke-linejoin="round"/>
</svg>
